<?xml version="1.0" encoding="iso-8859-1"?>
<!-- Uploaded to: SVG Repo, www.svgrepo.com, Generator: SVG Repo Mixer Tools -->
<svg version="1.1" id="Layer_1" xmlns="http://www.w3.org/2000/svg" xmlns:xlink="http://www.w3.org/1999/xlink" 
	 viewBox="0 0 300.726 300.726" xml:space="preserve">
<g>
	<g id="cash-register-cashire-retail-machine_1_">
		<path style="fill:#F8CF26;" d="M14.097,281.93c0,7.772,6.325,14.096,14.097,14.096H281.93c7.772,0,14.096-6.325,14.096-14.096
			v-37.591H14.097V281.93z M155.062,253.737c7.772,0,14.096,6.325,14.096,14.096c0,7.772-6.325,14.097-14.096,14.097
			s-14.096-6.325-14.096-14.097C140.965,260.062,147.29,253.737,155.062,253.737z"/>
		<path style="fill:#F8CF26;" d="M112.772,98.676c0-2.594-2.105-4.699-4.699-4.699v9.398
			C110.667,103.374,112.772,101.269,112.772,98.676z"/>
		<circle style="fill:#F8CF26;" cx="155.062" cy="267.834" r="4.699"/>
		<path style="fill:#F78B28;" d="M98.676,31.097l-2.598,1.297c-1.32,0.663-2.88,0.663-4.205,0l-7.293-3.646l-7.297,3.646
			c-1.32,0.663-2.88,0.663-4.205,0l-7.293-3.646l-7.297,3.646c-1.32,0.663-2.88,0.663-4.205,0l-2.594-1.297v72.277h46.988
			L98.676,31.097L98.676,31.097z"/>
		<rect x="117.471" y="206.749" style="fill:#F8CF26;" width="14.097" height="9.398"/>
		<rect x="187.953" y="206.749" style="fill:#F8CF26;" width="9.398" height="9.398"/>
		<rect x="117.471" y="169.158" style="fill:#F8CF26;" width="14.097" height="9.398"/>
		<rect x="187.953" y="169.158" style="fill:#F8CF26;" width="9.398" height="9.398"/>
		<rect x="225.544" y="206.749" style="fill:#F8CF26;" width="9.398" height="9.398"/>
		<rect x="225.544" y="169.158" style="fill:#F8CF26;" width="9.398" height="9.398"/>
		<rect x="75.181" y="169.158" style="fill:#F8CF26;" width="14.097" height="9.398"/>
		<rect x="75.181" y="131.567" style="fill:#F8CF26;" width="14.097" height="9.398"/>
		<rect x="32.892" y="169.158" style="fill:#F8CF26;" width="14.097" height="9.398"/>
		<rect x="32.892" y="131.567" style="fill:#F8CF26;" width="14.097" height="9.398"/>
		<rect x="263.135" y="206.749" style="fill:#F8CF26;" width="9.398" height="9.398"/>
		<rect x="75.181" y="206.749" style="fill:#F8CF26;" width="14.097" height="9.398"/>
		<path style="fill:#F8CF26;" d="M42.29,103.374v-9.398c-2.594,0-4.699,2.105-4.699,4.699S39.696,103.374,42.29,103.374z"/>
		<rect x="32.892" y="206.749" style="fill:#F8CF26;" width="14.097" height="9.398"/>
		<rect x="117.471" y="131.567" style="fill:#F8CF26;" width="14.097" height="9.398"/>
		<path style="fill:#3ADDBE;" d="M291.328,14.097h-93.977c-2.594,0-4.699,2.105-4.699,4.699v18.795c0,2.594,2.105,4.699,4.699,4.699
			h93.977c2.594,0,4.699-2.105,4.699-4.699V18.795C296.027,16.202,293.921,14.097,291.328,14.097z"/>
		<rect x="183.255" y="93.977" style="fill:#3ADDBE;" width="93.977" height="28.193"/>
		<rect x="263.135" y="169.158" style="fill:#F8CF26;" width="9.398" height="9.398"/>
		<path style="fill:#F8CF26;" d="M108.073,84.579c7.772,0,14.097,6.325,14.097,14.097s-6.325,14.097-14.097,14.097h-4.699H46.988
			H42.29c-7.772,0-14.097-6.325-14.097-14.097s6.325-14.097,14.097-14.097v-9.398H14.097v159.76h281.93V75.181H108.073V84.579z
			 M56.386,220.845c0,2.598-2.1,4.699-4.699,4.699H28.193c-2.598,0-4.699-2.1-4.699-4.699V202.05c0-2.598,2.1-4.699,4.699-4.699
			h23.494c2.598,0,4.699,2.1,4.699,4.699V220.845z M56.386,183.255c0,2.598-2.1,4.699-4.699,4.699H28.193
			c-2.598,0-4.699-2.1-4.699-4.699V164.46c0-2.598,2.1-4.699,4.699-4.699h23.494c2.598,0,4.699,2.1,4.699,4.699V183.255z
			 M56.386,145.664c0,2.598-2.1,4.699-4.699,4.699H28.193c-2.598,0-4.699-2.1-4.699-4.699v-18.795c0-2.598,2.1-4.699,4.699-4.699
			h23.494c2.598,0,4.699,2.1,4.699,4.699V145.664z M98.676,220.845c0,2.598-2.1,4.699-4.699,4.699H70.483
			c-2.598,0-4.699-2.1-4.699-4.699V202.05c0-2.598,2.1-4.699,4.699-4.699h23.494c2.598,0,4.699,2.1,4.699,4.699V220.845z
			 M98.676,183.255c0,2.598-2.1,4.699-4.699,4.699H70.483c-2.598,0-4.699-2.1-4.699-4.699V164.46c0-2.598,2.1-4.699,4.699-4.699
			h23.494c2.598,0,4.699,2.1,4.699,4.699V183.255z M98.676,145.664c0,2.598-2.1,4.699-4.699,4.699H70.483
			c-2.598,0-4.699-2.1-4.699-4.699v-18.795c0-2.598,2.1-4.699,4.699-4.699h23.494c2.598,0,4.699,2.1,4.699,4.699V145.664z
			 M140.965,220.845c0,2.598-2.1,4.699-4.699,4.699h-23.494c-2.598,0-4.699-2.1-4.699-4.699V202.05c0-2.598,2.1-4.699,4.699-4.699
			h23.494c2.598,0,4.699,2.1,4.699,4.699V220.845z M140.965,183.255c0,2.598-2.1,4.699-4.699,4.699h-23.494
			c-2.598,0-4.699-2.1-4.699-4.699V164.46c0-2.598,2.1-4.699,4.699-4.699h23.494c2.598,0,4.699,2.1,4.699,4.699V183.255z
			 M206.749,220.845c0,2.598-2.1,4.699-4.699,4.699h-18.795c-2.598,0-4.699-2.1-4.699-4.699V202.05c0-2.598,2.1-4.699,4.699-4.699
			h18.795c2.598,0,4.699,2.1,4.699,4.699V220.845z M206.749,183.255c0,2.598-2.1,4.699-4.699,4.699h-18.795
			c-2.598,0-4.699-2.1-4.699-4.699V164.46c0-2.598,2.1-4.699,4.699-4.699h18.795c2.598,0,4.699,2.1,4.699,4.699V183.255z
			 M206.749,150.363h-28.193v-9.398h28.193V150.363z M244.339,220.845c0,2.598-2.1,4.699-4.699,4.699h-18.795
			c-2.598,0-4.699-2.1-4.699-4.699V202.05c0-2.598,2.1-4.699,4.699-4.699h18.795c2.598,0,4.699,2.1,4.699,4.699V220.845z
			 M244.339,183.255c0,2.598-2.1,4.699-4.699,4.699h-18.795c-2.598,0-4.699-2.1-4.699-4.699V164.46c0-2.598,2.1-4.699,4.699-4.699
			h18.795c2.598,0,4.699,2.1,4.699,4.699V183.255z M244.339,150.363h-28.193v-9.398h28.193L244.339,150.363L244.339,150.363z
			 M281.93,220.845c0,2.598-2.1,4.699-4.699,4.699h-18.795c-2.598,0-4.699-2.1-4.699-4.699V202.05c0-2.598,2.1-4.699,4.699-4.699
			h18.795c2.598,0,4.699,2.1,4.699,4.699V220.845z M281.93,183.255c0,2.598-2.1,4.699-4.699,4.699h-18.795
			c-2.598,0-4.699-2.1-4.699-4.699V164.46c0-2.598,2.1-4.699,4.699-4.699h18.795c2.598,0,4.699,2.1,4.699,4.699V183.255z
			 M281.93,150.363h-28.193v-9.398h28.193V150.363z M173.857,89.278c0-2.598,2.1-4.699,4.699-4.699H281.93
			c2.598,0,4.699,2.1,4.699,4.699v37.591c0,2.598-2.1,4.699-4.699,4.699H178.556c-2.598,0-4.699-2.1-4.699-4.699V89.278z
			 M140.965,126.869v18.795c0,2.598-2.1,4.699-4.699,4.699h-23.494c-2.598,0-4.699-2.1-4.699-4.699v-18.795
			c0-2.598,2.1-4.699,4.699-4.699h23.494C138.865,122.17,140.965,124.27,140.965,126.869z"/>
		<path d="M286.629,46.988c7.772,0,14.096-6.325,14.096-14.097V14.097C300.725,6.325,294.401,0,286.629,0h-93.977
			c-7.772,0-14.097,6.325-14.097,14.097v18.795c0,7.772,6.325,14.097,14.097,14.097h42.29v14.097H103.374v-42.29
			c0-1.63-0.846-3.139-2.232-3.999c-1.386-0.865-3.115-0.935-4.572-0.207l-7.293,3.651l-7.297-3.646c-1.32-0.663-2.88-0.663-4.205,0
			l-7.293,3.646l-7.297-3.646c-1.32-0.663-2.88-0.663-4.205,0l-7.293,3.646L44.39,14.59c-1.457-0.724-3.186-0.658-4.572,0.207
			c-1.381,0.86-2.227,2.368-2.227,3.999v42.29H4.699C2.1,61.085,0,63.185,0,65.784v169.158v42.29
			c0,12.955,10.539,23.494,23.494,23.494h253.737c12.955,0,23.494-10.539,23.494-23.494v-42.29V65.784
			c0-2.598-2.1-4.699-4.699-4.699h-51.687V46.988H286.629z M103.374,89.278c2.594,0,4.699,2.105,4.699,4.699
			s-2.105,4.699-4.699,4.699V89.278z M46.988,26.398l2.598,1.297c1.32,0.663,2.88,0.663,4.205,0l7.293-3.646l7.297,3.646
			c1.32,0.663,2.88,0.663,4.205,0l7.293-3.646l7.297,3.646c1.32,0.663,2.88,0.663,4.205,0l2.594-1.297v72.277H46.988V26.398z
			 M32.892,93.977c0-2.594,2.105-4.699,4.699-4.699v9.398C34.997,98.676,32.892,96.57,32.892,93.977z M291.328,277.231
			c0,7.772-6.325,14.096-14.096,14.096H23.494c-7.772,0-14.097-6.325-14.097-14.096V239.64h281.93v37.591H291.328z M291.328,230.243
			H9.398V70.483h28.193v9.398c-7.772,0-14.097,6.325-14.097,14.097s6.325,14.097,14.097,14.097h4.699h56.386h4.699
			c7.772,0,14.097-6.325,14.097-14.097s-6.325-14.097-14.097-14.097v-9.398h187.953V230.243z M187.953,32.892V14.097
			c0-2.594,2.105-4.699,4.699-4.699h93.977c2.594,0,4.699,2.105,4.699,4.699v18.795c0,2.594-2.105,4.699-4.699,4.699h-93.977
			C190.058,37.591,187.953,35.486,187.953,32.892z"/>
		<path d="M173.857,126.869h103.374c2.598,0,4.699-2.1,4.699-4.699V84.579c0-2.598-2.1-4.699-4.699-4.699H173.857
			c-2.598,0-4.699,2.1-4.699,4.699v37.591C169.158,124.768,171.258,126.869,173.857,126.869z M178.556,89.278h93.977v28.193h-93.977
			V89.278z"/>
		<path d="M46.988,117.471H23.494c-2.598,0-4.699,2.1-4.699,4.699v18.795c0,2.598,2.1,4.699,4.699,4.699h23.494
			c2.598,0,4.699-2.1,4.699-4.699V122.17C51.687,119.571,49.587,117.471,46.988,117.471z M42.29,136.266H28.193v-9.398H42.29
			V136.266z"/>
		<path d="M89.278,117.471H65.784c-2.598,0-4.699,2.1-4.699,4.699v18.795c0,2.598,2.1,4.699,4.699,4.699h23.494
			c2.598,0,4.699-2.1,4.699-4.699V122.17C93.977,119.571,91.876,117.471,89.278,117.471z M84.579,136.266H70.483v-9.398h14.096
			V136.266z"/>
		<path d="M103.374,122.17v18.795c0,2.598,2.1,4.699,4.699,4.699h23.494c2.598,0,4.699-2.1,4.699-4.699V122.17
			c0-2.598-2.1-4.699-4.699-4.699h-23.494C105.475,117.471,103.374,119.571,103.374,122.17z M112.772,126.869h14.097v9.398h-14.097
			V126.869z"/>
		<path d="M46.988,155.062H23.494c-2.598,0-4.699,2.1-4.699,4.699v18.795c0,2.598,2.1,4.699,4.699,4.699h23.494
			c2.598,0,4.699-2.1,4.699-4.699V159.76C51.687,157.162,49.587,155.062,46.988,155.062z M42.29,173.857H28.193v-9.398H42.29
			V173.857z"/>
		<path d="M89.278,155.062H65.784c-2.598,0-4.699,2.1-4.699,4.699v18.795c0,2.598,2.1,4.699,4.699,4.699h23.494
			c2.598,0,4.699-2.1,4.699-4.699V159.76C93.977,157.162,91.876,155.062,89.278,155.062z M84.579,173.857H70.483v-9.398h14.096
			V173.857z"/>
		<path d="M131.567,155.062h-23.494c-2.598,0-4.699,2.1-4.699,4.699v18.795c0,2.598,2.1,4.699,4.699,4.699h23.494
			c2.598,0,4.699-2.1,4.699-4.699V159.76C136.266,157.162,134.166,155.062,131.567,155.062z M126.869,173.857h-14.097v-9.398h14.097
			V173.857z"/>
		<path d="M46.988,192.652H23.494c-2.598,0-4.699,2.1-4.699,4.699v18.795c0,2.598,2.1,4.699,4.699,4.699h23.494
			c2.598,0,4.699-2.1,4.699-4.699v-18.795C51.687,194.753,49.587,192.652,46.988,192.652z M42.29,211.448H28.193v-9.398H42.29
			V211.448z"/>
		<path d="M89.278,192.652H65.784c-2.598,0-4.699,2.1-4.699,4.699v18.795c0,2.598,2.1,4.699,4.699,4.699h23.494
			c2.598,0,4.699-2.1,4.699-4.699v-18.795C93.977,194.753,91.876,192.652,89.278,192.652z M84.579,211.448H70.483v-9.398h14.096
			V211.448z"/>
		<path d="M131.567,192.652h-23.494c-2.598,0-4.699,2.1-4.699,4.699v18.795c0,2.598,2.1,4.699,4.699,4.699h23.494
			c2.598,0,4.699-2.1,4.699-4.699v-18.795C136.266,194.753,134.166,192.652,131.567,192.652z M126.869,211.448h-14.097v-9.398
			h14.097V211.448z"/>
		<path d="M197.351,155.062h-18.795c-2.598,0-4.699,2.1-4.699,4.699v18.795c0,2.598,2.1,4.699,4.699,4.699h18.795
			c2.598,0,4.699-2.1,4.699-4.699V159.76C202.05,157.162,199.95,155.062,197.351,155.062z M192.652,173.857h-9.398v-9.398h9.398
			V173.857z"/>
		<path d="M234.942,155.062h-18.795c-2.598,0-4.699,2.1-4.699,4.699v18.795c0,2.598,2.1,4.699,4.699,4.699h18.795
			c2.598,0,4.699-2.1,4.699-4.699V159.76C239.641,157.162,237.54,155.062,234.942,155.062z M230.243,173.857h-9.398v-9.398h9.398
			V173.857z"/>
		<path d="M272.533,155.062h-18.795c-2.598,0-4.699,2.1-4.699,4.699v18.795c0,2.598,2.1,4.699,4.699,4.699h18.795
			c2.598,0,4.699-2.1,4.699-4.699V159.76C277.231,157.162,275.132,155.062,272.533,155.062z M267.835,173.857h-9.398v-9.398h9.398
			V173.857z"/>
		<path d="M197.351,192.652h-18.795c-2.598,0-4.699,2.1-4.699,4.699v18.795c0,2.598,2.1,4.699,4.699,4.699h18.795
			c2.598,0,4.699-2.1,4.699-4.699v-18.795C202.05,194.753,199.95,192.652,197.351,192.652z M192.652,211.448h-9.398v-9.398h9.398
			V211.448z"/>
		<path d="M234.942,192.652h-18.795c-2.598,0-4.699,2.1-4.699,4.699v18.795c0,2.598,2.1,4.699,4.699,4.699h18.795
			c2.598,0,4.699-2.1,4.699-4.699v-18.795C239.641,194.753,237.54,192.652,234.942,192.652z M230.243,211.448h-9.398v-9.398h9.398
			V211.448z"/>
		<path d="M272.533,192.652h-18.795c-2.598,0-4.699,2.1-4.699,4.699v18.795c0,2.598,2.1,4.699,4.699,4.699h18.795
			c2.598,0,4.699-2.1,4.699-4.699v-18.795C277.231,194.753,275.132,192.652,272.533,192.652z M267.835,211.448h-9.398v-9.398h9.398
			V211.448z"/>
		<rect x="173.857" y="136.266" width="28.193" height="9.398"/>
		<rect x="211.448" y="136.266" width="28.193" height="9.398"/>
		<rect x="249.038" y="136.266" width="28.193" height="9.398"/>
		<path d="M150.363,277.231c7.772,0,14.097-6.325,14.097-14.096c0-7.772-6.325-14.097-14.097-14.097s-14.096,6.325-14.096,14.097
			C136.266,270.907,142.591,277.231,150.363,277.231z M150.363,258.436c2.594,0,4.699,2.105,4.699,4.699s-2.105,4.699-4.699,4.699
			s-4.699-2.105-4.699-4.699S147.769,258.436,150.363,258.436z"/>
	</g>
	<g id="Layer_1_4_">
	</g>
</g>
</svg>