<?xml version="1.0" encoding="iso-8859-1"?>
<!-- Uploaded to: SVG Repo, www.svgrepo.com, Generator: SVG Repo Mixer Tools -->
<svg height="800px" width="800px" version="1.1" id="Layer_1" xmlns="http://www.w3.org/2000/svg" xmlns:xlink="http://www.w3.org/1999/xlink" 
	 viewBox="0 0 504.32 504.32" xml:space="preserve">
<g transform="translate(2 1)">
	<path style="fill:#FFFFFF;" d="M40.667,307.5l-25.6-0.853c0,0,9.387,128,106.667,131.413l13.653,0.853
		C48.347,436.354,40.667,307.5,40.667,307.5"/>
	<path style="fill:#FFE100;" d="M437.467,310.914H32.987c0,0,12.8,128,98.987,128h251.733c0,0-5.973-59.733,52.907-59.733
		c17.067,0,30.72-15.36,30.72-34.133S454.533,310.914,437.467,310.914"/>
	<path style="fill:#FFA800;" d="M459.653,312.62l-22.187-0.853c17.067,0.853,29.867,16.213,29.013,34.987
		c-0.853,18.773-14.507,33.28-31.573,33.28c-59.733-1.707-55.467,58.027-55.467,58.027l15.36,0.853c0,0-5.12-59.733,61.44-58.027
		c18.773,0.853,34.987-14.507,34.987-33.28C492.933,329.687,478.427,313.474,459.653,312.62"/>
	<g>
		<path style="fill:#FFE100;" d="M212.187,97.58c-1.707,0-2.56,0-4.267-0.853c-10.24-5.973-12.8-12.8-12.8-17.92
			s1.707-13.653,11.947-22.187c3.413-2.56,9.387-2.56,11.947,1.707c2.56,3.413,2.56,9.387-1.707,11.947
			c-4.267,3.413-5.12,5.973-5.12,6.827s0.853,2.56,4.267,4.267c4.267,2.56,5.12,7.68,2.56,11.947
			C218.16,95.874,214.747,97.58,212.187,97.58z"/>
		<path style="fill:#FFE100;" d="M212.187,123.18c-2.56,0-5.973-1.707-7.68-4.267c-1.707-4.267-0.853-9.387,3.413-11.947
			c3.413-1.707,4.267-3.413,4.267-4.267s-0.853-3.413-5.12-6.827c-3.413-2.56-4.267-8.533-1.707-11.947
			c2.56-3.413,8.533-4.267,11.947-1.707c11.093,7.68,12.8,16.213,11.947,21.333c0,5.12-2.56,11.947-12.8,18.773
			C215.6,123.18,213.893,123.18,212.187,123.18z"/>
		<path style="fill:#FFE100;" d="M314.587,97.58c-1.707,0-2.56,0-4.267-0.853c-10.24-5.973-12.8-12.8-12.8-17.92
			s1.707-13.653,11.947-22.187c3.413-2.56,9.387-2.56,11.947,1.707c2.56,3.413,2.56,9.387-1.707,11.947
			c-4.267,3.413-5.12,5.973-5.12,6.827s0.853,2.56,4.267,4.267c4.267,2.56,5.12,7.68,2.56,11.947
			C319.707,95.874,317.147,97.58,314.587,97.58z"/>
		<path style="fill:#FFE100;" d="M314.587,123.18c-2.56,0-5.973-1.707-7.68-4.267c-1.707-4.267-0.853-9.387,3.413-11.947
			c3.413-1.707,4.267-3.413,4.267-4.267s-0.853-3.413-5.12-6.827c-3.413-2.56-4.267-8.533-1.707-11.947
			c2.56-3.413,8.533-4.267,11.947-1.707c10.24,7.68,11.947,16.213,11.947,21.333s-2.56,11.947-12.8,18.773
			C318,123.18,316.293,123.18,314.587,123.18z"/>
		<path style="fill:#FFE100;" d="M365.787,310.914H143.92v-42.667c0-14.507,11.093-25.6,25.6-25.6h167.253
			c16.213,0,29.013,12.8,29.013,29.013V310.914z"/>
	</g>
	<path style="fill:#FFA800;" d="M362.373,242.647h-25.6c16.213,0,29.013,12.8,29.013,29.013v39.253h25.6v-42.667
		C391.387,252.034,378.587,242.647,362.373,242.647"/>
	<path style="fill:#FFFFFF;" d="M169.52,242.647h-22.187c-16.213,0-29.013,9.387-29.013,25.6v42.667h25.6v-42.667
		C143.92,253.74,155.013,242.647,169.52,242.647"/>
	<g>
		<path style="fill:#FFE100;" d="M229.253,242.647h-51.2V169.26c0-6.827,5.12-11.947,11.947-11.947h27.307
			c6.827,0,11.947,5.12,11.947,11.947V242.647z"/>
		<path style="fill:#FFE100;" d="M331.653,242.647h-51.2V169.26c0-6.827,5.12-11.947,11.947-11.947h27.307
			c6.827,0,11.947,5.12,11.947,11.947L331.653,242.647L331.653,242.647z"/>
	</g>
	<path d="M399.92,447.447h-281.6c-103.253,0-119.467-133.973-119.467-135.68L-2,302.38h461.653
		c23.893,0,42.667,18.773,42.667,42.667c0,23.893-18.773,42.667-42.667,42.667c-17.92,0-31.573,5.12-40.107,14.507
		c-12.8,14.507-11.093,35.84-11.093,35.84l0.853,9.387H399.92z M17.627,319.447c2.56,11.947,6.827,31.573,17.067,52.053
		c18.773,39.253,46.933,58.88,83.627,58.88h273.067c0.853-10.24,3.413-26.453,15.36-39.253c11.947-13.653,29.867-20.48,52.907-20.48
		c14.507,0,25.6-11.093,25.6-25.6c0-14.507-11.093-25.6-25.6-25.6H17.627z"/>
	<path d="M399.92,319.447H109.787v-51.2c0-19.627,15.36-34.133,37.547-34.133h215.04c21.333,0,37.547,14.507,37.547,34.133V319.447z
		 M126.853,302.38h256v-34.133c0-11.947-10.24-17.067-20.48-17.067h-215.04c-10.24,0-20.48,5.12-20.48,17.067V302.38z"/>
	<path d="M237.787,251.18H169.52v-81.92c0-11.093,9.387-20.48,20.48-20.48h27.307c11.093,0,20.48,9.387,20.48,20.48V251.18z
		 M186.587,234.114h34.133V169.26c0-1.707-1.707-3.413-3.413-3.413H190c-1.707,0-3.413,1.707-3.413,3.413V234.114z"/>
	<path d="M340.187,251.18H271.92v-81.92c0-11.093,9.387-20.48,20.48-20.48h27.307c11.093,0,20.48,9.387,20.48,20.48L340.187,251.18
		L340.187,251.18z M288.987,234.114h34.133V169.26c0-1.707-1.707-3.413-3.413-3.413H292.4c-1.707,0-3.413,1.707-3.413,3.413
		L288.987,234.114L288.987,234.114z"/>
	<path d="M203.653,97.58c-1.707,0-2.56,0-4.267-0.853c-10.24-5.973-12.8-12.8-12.8-17.92s1.707-13.653,11.947-22.187
		c3.413-2.56,9.387-2.56,11.947,1.707c2.56,3.413,2.56,9.387-1.707,11.947c-4.267,3.413-5.12,5.973-5.12,6.827
		s0.853,2.56,4.267,4.267c4.267,2.56,5.12,7.68,2.56,11.947C208.773,95.874,206.213,97.58,203.653,97.58z"/>
	<path d="M203.653,123.18c-2.56,0-5.973-1.707-7.68-4.267c-1.707-4.267-0.853-9.387,3.413-11.947
		c3.413-1.707,4.267-3.413,4.267-4.267s-0.853-3.413-5.12-6.827c-3.413-2.56-4.267-8.533-1.707-11.947
		c2.56-3.413,8.533-4.267,11.947-1.707c10.24,7.68,11.947,16.213,11.947,21.333s-2.56,11.947-12.8,18.773
		C207.067,123.18,205.36,123.18,203.653,123.18z"/>
	<path d="M306.053,97.58c-1.707,0-2.56,0-4.267-0.853c-10.24-5.973-12.8-12.8-12.8-17.92s1.707-13.653,11.947-22.187
		c3.413-2.56,9.387-2.56,11.947,1.707c2.56,3.413,2.56,9.387-1.707,11.947c-4.267,3.413-5.12,5.973-5.12,6.827
		s0.853,2.56,4.267,4.267c4.267,2.56,5.12,7.68,3.413,11.947C311.173,95.874,308.613,97.58,306.053,97.58z"/>
	<path d="M306.053,123.18c-2.56,0-5.973-1.707-7.68-4.267c-2.56-4.267-0.853-9.387,3.413-11.947
		c3.413-1.707,4.267-3.413,4.267-4.267s-0.853-3.413-5.12-6.827c-3.413-2.56-4.267-8.533-1.707-11.947
		c2.56-3.413,8.533-4.267,11.947-1.707c10.24,7.68,11.947,16.213,11.947,21.333s-2.56,11.947-12.8,18.773
		C308.613,123.18,307.76,123.18,306.053,123.18z"/>
	<path d="M220.72,276.78c0,5.12-4.267,8.533-8.533,8.533c-5.12,0-8.533-4.267-8.533-8.533c0-5.12,4.267-8.533,8.533-8.533
		S220.72,272.514,220.72,276.78"/>
	<path d="M263.387,276.78c0,5.12-4.267,8.533-8.533,8.533c-5.12,0-8.533-4.267-8.533-8.533c0-5.12,4.267-8.533,8.533-8.533
		C259.12,268.247,263.387,272.514,263.387,276.78"/>
	<path d="M306.053,276.78c0,5.12-4.267,8.533-8.533,8.533c-5.12,0-8.533-4.267-8.533-8.533c0-5.12,4.267-8.533,8.533-8.533
		S306.053,272.514,306.053,276.78"/>
	<path d="M340.187,404.78H41.52c-5.12,0-8.533-3.413-8.533-8.533c0-5.12,3.413-8.533,8.533-8.533h298.667
		c5.12,0,8.533,3.413,8.533,8.533C348.72,401.367,345.307,404.78,340.187,404.78z"/>
	<path d="M306.053,362.114h-281.6c-5.12,0-8.533-3.413-8.533-8.533s3.413-8.533,8.533-8.533h281.6c5.12,0,8.533,3.413,8.533,8.533
		S311.173,362.114,306.053,362.114z"/>
</g>
</svg>